<?xml version="1.0"?>
<svg xmlns="http://www.w3.org/2000/svg" xmlns:xlink="http://www.w3.org/1999/xlink" version="1.1" viewBox="0 0 252 252" width="96px" height="96px"><g transform=""><g fill="none" fill-rule="nonzero" stroke="none" stroke-width="1" stroke-linecap="butt" stroke-linejoin="miter" stroke-miterlimit="10" stroke-dasharray="" stroke-dashoffset="0" font-family="none" font-weight="none" font-size="none" text-anchor="none" style="mix-blend-mode: normal"><path d="M0,252v-252h252v252z" fill="#ffffff"/><g id="Layer_1"><path d="M125.64825,10.5l-109.89825,38.24625l17.367,142.39575l92.64675,50.358l93.1245,-51.0405l17.36175,-142.3905z" fill="#bdbdbd"/><path d="M224.7945,55.26675l-98.7945,-33.558v207.69l83.118,-45.5595z" fill="#b71c1c"/><path d="M125.69025,21.60375l-98.49,34.27725l15.68175,128.61975l82.86075,45.0345l0.25725,-0.1365v-207.69z" fill="#dd2c00"/><path d="M126,31.479v49.917l45.0345,97.104h23.14725z" fill="#bdbdbd"/><path d="M57.81825,178.5h23.14725l45.0345,-97.104v-49.917z" fill="#eeeeee"/><rect x="24" y="24" transform="scale(5.25,5.25)" width="6" height="4" fill="#bdbdbd"/><rect x="18" y="24" transform="scale(5.25,5.25)" width="6" height="4" fill="#eeeeee"/></g><path d="M126,252c-69.58788,0 -126,-56.41212 -126,-126v0c0,-69.58788 56.41212,-126 126,-126v0c69.58788,0 126,56.41212 126,126v0c0,69.58788 -56.41212,126 -126,126z" fill="none"/><path d="M126,246.96c-66.80436,0 -120.96,-54.15564 -120.96,-120.96v0c0,-66.80436 54.15564,-120.96 120.96,-120.96h0c66.80436,0 120.96,54.15564 120.96,120.96v0c0,66.80436 -54.15564,120.96 -120.96,120.96z" fill="none"/><path d="M7.56,252c-4.17527,0 -7.56,-3.38473 -7.56,-7.56v-236.88c0,-4.17527 3.38473,-7.56 7.56,-7.56h236.88c4.17527,0 7.56,3.38473 7.56,7.56v236.88c0,4.17527 -3.38473,7.56 -7.56,7.56z" fill="none"/><path d="M57.96,201.6c-4.17527,0 -7.56,-3.38473 -7.56,-7.56v-136.08c0,-4.17527 3.38473,-7.56 7.56,-7.56h136.08c4.17527,0 7.56,3.38473 7.56,7.56v136.08c0,4.17527 -3.38473,7.56 -7.56,7.56z" fill="none"/><path d="M8.82,252c-4.87115,0 -8.82,-3.94885 -8.82,-8.82v-234.36c0,-4.87115 3.94885,-8.82 8.82,-8.82h234.36c4.87115,0 8.82,3.94885 8.82,8.82v234.36c0,4.87115 -3.94885,8.82 -8.82,8.82z" fill="none"/><path d="M59.22,201.6c-4.87115,0 -8.82,-3.94885 -8.82,-8.82v-133.56c0,-4.87115 3.94885,-8.82 8.82,-8.82h133.56c4.87115,0 8.82,3.94885 8.82,8.82v133.56c0,4.87115 -3.94885,8.82 -8.82,8.82z" fill="none"/><path d="M15.12,252c-8.35055,0 -15.12,-6.76945 -15.12,-15.12v-221.76c0,-8.35055 6.76945,-15.12 15.12,-15.12h221.76c8.35055,0 15.12,6.76945 15.12,15.12v221.76c0,8.35055 -6.76945,15.12 -15.12,15.12z" fill="none"/><path d="M65.52,201.6c-8.35055,0 -15.12,-6.76945 -15.12,-15.12v-120.96c0,-8.35055 6.76945,-15.12 15.12,-15.12h120.96c8.35055,0 15.12,6.76945 15.12,15.12v120.96c0,8.35055 -6.76945,15.12 -15.12,15.12z" fill="none"/><path d="M18.9,252c-10.43818,0 -18.9,-8.46182 -18.9,-18.9v-214.2c0,-10.43818 8.46182,-18.9 18.9,-18.9h214.2c10.43818,0 18.9,8.46182 18.9,18.9v214.2c0,10.43818 -8.46182,18.9 -18.9,18.9z" fill="none"/><path d="M69.3,201.6c-10.43818,0 -18.9,-8.46182 -18.9,-18.9v-113.4c0,-10.43818 8.46182,-18.9 18.9,-18.9h113.4c10.43818,0 18.9,8.46182 18.9,18.9v113.4c0,10.43818 -8.46182,18.9 -18.9,18.9z" fill="none"/><path d="M20.16,252c-11.13406,0 -20.16,-9.02594 -20.16,-20.16v-211.68c0,-11.13406 9.02594,-20.16 20.16,-20.16h211.68c11.13406,0 20.16,9.02594 20.16,20.16v211.68c0,11.13406 -9.02594,20.16 -20.16,20.16z" fill="none"/><path d="M70.56,201.6c-11.13406,0 -20.16,-9.02594 -20.16,-20.16v-110.88c0,-11.13406 9.02594,-20.16 20.16,-20.16h110.88c11.13406,0 20.16,9.02594 20.16,20.16v110.88c0,11.13406 -9.02594,20.16 -20.16,20.16z" fill="none"/><path d="M21.42,252c-11.82994,0 -21.42,-9.59006 -21.42,-21.42v-209.16c0,-11.82994 9.59006,-21.42 21.42,-21.42h209.16c11.82994,0 21.42,9.59006 21.42,21.42v209.16c0,11.82994 -9.59006,21.42 -21.42,21.42z" fill="none"/><path d="M71.82,201.6c-11.82994,0 -21.42,-9.59006 -21.42,-21.42v-108.36c0,-11.82994 9.59006,-21.42 21.42,-21.42h108.36c11.82994,0 21.42,9.59006 21.42,21.42v108.36c0,11.82994 -9.59006,21.42 -21.42,21.42z" fill="none"/><path d="M22.68,252c-12.52582,0 -22.68,-10.15418 -22.68,-22.68v-206.64c0,-12.52582 10.15418,-22.68 22.68,-22.68h206.64c12.52582,0 22.68,10.15418 22.68,22.68v206.64c0,12.52582 -10.15418,22.68 -22.68,22.68z" fill="none"/><path d="M73.08,201.6c-12.52582,0 -22.68,-10.15418 -22.68,-22.68v-105.84c0,-12.52582 10.15418,-22.68 22.68,-22.68h105.84c12.52582,0 22.68,10.15418 22.68,22.68v105.84c0,12.52582 -10.15418,22.68 -22.68,22.68z" fill="none"/><path d="M23.94,252c-13.2217,0 -23.94,-10.7183 -23.94,-23.94v-204.12c0,-13.2217 10.7183,-23.94 23.94,-23.94h204.12c13.2217,0 23.94,10.7183 23.94,23.94v204.12c0,13.2217 -10.7183,23.94 -23.94,23.94z" fill="none"/><path d="M74.34,201.6c-13.2217,0 -23.94,-10.7183 -23.94,-23.94v-103.32c0,-13.2217 10.7183,-23.94 23.94,-23.94h103.32c13.2217,0 23.94,10.7183 23.94,23.94v103.32c0,13.2217 -10.7183,23.94 -23.94,23.94z" fill="none"/><path d="M25.2,252c-13.91758,0 -25.2,-11.28242 -25.2,-25.2v-201.6c0,-13.91758 11.28242,-25.2 25.2,-25.2h201.6c13.91758,0 25.2,11.28242 25.2,25.2v201.6c0,13.91758 -11.28242,25.2 -25.2,25.2z" fill="none"/><path d="M75.6,201.6c-13.91758,0 -25.2,-11.28242 -25.2,-25.2v-100.8c0,-13.91758 11.28242,-25.2 25.2,-25.2h100.8c13.91758,0 25.2,11.28242 25.2,25.2v100.8c0,13.91758 -11.28242,25.2 -25.2,25.2z" fill="none"/><path d="M26.46,252c-14.61345,0 -26.46,-11.84655 -26.46,-26.46v-199.08c0,-14.61345 11.84655,-26.46 26.46,-26.46h199.08c14.61345,0 26.46,11.84655 26.46,26.46v199.08c0,14.61345 -11.84655,26.46 -26.46,26.46z" fill="none"/><path d="M76.86,201.6c-14.61345,0 -26.46,-11.84655 -26.46,-26.46v-98.28c0,-14.61345 11.84655,-26.46 26.46,-26.46h98.28c14.61345,0 26.46,11.84655 26.46,26.46v98.28c0,14.61345 -11.84655,26.46 -26.46,26.46z" fill="none"/><path d="M27.72,252c-15.30933,0 -27.72,-12.41067 -27.72,-27.72v-196.56c0,-15.30933 12.41067,-27.72 27.72,-27.72h196.56c15.30933,0 27.72,12.41067 27.72,27.72v196.56c0,15.30933 -12.41067,27.72 -27.72,27.72z" fill="none"/><path d="M78.12,201.6c-15.30933,0 -27.72,-12.41067 -27.72,-27.72v-95.76c0,-15.30933 12.41067,-27.72 27.72,-27.72h95.76c15.30933,0 27.72,12.41067 27.72,27.72v95.76c0,15.30933 -12.41067,27.72 -27.72,27.72z" fill="none"/><path d="M30.24,252c-16.70109,0 -30.24,-13.53891 -30.24,-30.24v-191.52c0,-16.70109 13.53891,-30.24 30.24,-30.24h191.52c16.70109,0 30.24,13.53891 30.24,30.24v191.52c0,16.70109 -13.53891,30.24 -30.24,30.24z" fill="none"/><path d="M80.64,201.6c-16.70109,0 -30.24,-13.53891 -30.24,-30.24v-90.72c0,-16.70109 13.53891,-30.24 30.24,-30.24h90.72c16.70109,0 30.24,13.53891 30.24,30.24v90.72c0,16.70109 -13.53891,30.24 -30.24,30.24z" fill="none"/><path d="M35.28,252c-19.48461,0 -35.28,-15.79539 -35.28,-35.28v-181.44c0,-19.48461 15.79539,-35.28 35.28,-35.28h181.44c19.48461,0 35.28,15.79539 35.28,35.28v181.44c0,19.48461 -15.79539,35.28 -35.28,35.28z" fill="none"/><path d="M85.68,201.6c-19.48461,0 -35.28,-15.79539 -35.28,-35.28v-80.64c0,-19.48461 15.79539,-35.28 35.28,-35.28h80.64c19.48461,0 35.28,15.79539 35.28,35.28v80.64c0,19.48461 -15.79539,35.28 -35.28,35.28z" fill="none"/><path d="M37.8,252c-20.87636,0 -37.8,-16.92364 -37.8,-37.8v-176.4c0,-20.87636 16.92364,-37.8 37.8,-37.8h176.4c20.87636,0 37.8,16.92364 37.8,37.8v176.4c0,20.87636 -16.92364,37.8 -37.8,37.8z" fill="none"/><path d="M88.2,201.6c-20.87636,0 -37.8,-16.92364 -37.8,-37.8v-75.6c0,-20.87636 16.92364,-37.8 37.8,-37.8h75.6c20.87636,0 37.8,16.92364 37.8,37.8v75.6c0,20.87636 -16.92364,37.8 -37.8,37.8z" fill="none"/><path d="M40.32,252c-22.26812,0 -40.32,-18.05188 -40.32,-40.32v-171.36c0,-22.26812 18.05188,-40.32 40.32,-40.32h171.36c22.26812,0 40.32,18.05188 40.32,40.32v171.36c0,22.26812 -18.05188,40.32 -40.32,40.32z" fill="none"/><path d="M90.72,201.6c-22.26812,0 -40.32,-18.05188 -40.32,-40.32v-70.56c0,-22.26812 18.05188,-40.32 40.32,-40.32h70.56c22.26812,0 40.32,18.05188 40.32,40.32v70.56c0,22.26812 -18.05188,40.32 -40.32,40.32z" fill="none"/><path d="M41.58,252c-22.964,0 -41.58,-18.616 -41.58,-41.58v-168.84c0,-22.964 18.616,-41.58 41.58,-41.58h168.84c22.964,0 41.58,18.616 41.58,41.58v168.84c0,22.964 -18.616,41.58 -41.58,41.58z" fill="none"/><path d="M91.98,201.6c-22.964,0 -41.58,-18.616 -41.58,-41.58v-68.04c0,-22.964 18.616,-41.58 41.58,-41.58h68.04c22.964,0 41.58,18.616 41.58,41.58v68.04c0,22.964 -18.616,41.58 -41.58,41.58z" fill="none"/><path d="M42.84,252c-23.65988,0 -42.84,-19.18012 -42.84,-42.84v-166.32c0,-23.65988 19.18012,-42.84 42.84,-42.84h166.32c23.65988,0 42.84,19.18012 42.84,42.84v166.32c0,23.65988 -19.18012,42.84 -42.84,42.84z" fill="none"/><path d="M93.24,201.6c-23.65988,0 -42.84,-19.18012 -42.84,-42.84v-65.52c0,-23.65988 19.18012,-42.84 42.84,-42.84h65.52c23.65988,0 42.84,19.18012 42.84,42.84v65.52c0,23.65988 -19.18012,42.84 -42.84,42.84z" fill="none"/><path d="M47.88,252c-26.44339,0 -47.88,-21.43661 -47.88,-47.88v-156.24c0,-26.44339 21.43661,-47.88 47.88,-47.88h156.24c26.44339,0 47.88,21.43661 47.88,47.88v156.24c0,26.44339 -21.43661,47.88 -47.88,47.88z" fill="none"/><path d="M98.28,201.6c-26.44339,0 -47.88,-21.43661 -47.88,-47.88v-55.44c0,-26.44339 21.43661,-47.88 47.88,-47.88h55.44c26.44339,0 47.88,21.43661 47.88,47.88v55.44c0,26.44339 -21.43661,47.88 -47.88,47.88z" fill="none"/><path d="M50.4,252c-27.83515,0 -50.4,-22.56485 -50.4,-50.4v-151.2c0,-27.83515 22.56485,-50.4 50.4,-50.4h151.2c27.83515,0 50.4,22.56485 50.4,50.4v151.2c0,27.83515 -22.56485,50.4 -50.4,50.4z" fill="none"/><path d="M100.8,201.6c-27.83515,0 -50.4,-22.56485 -50.4,-50.4v-50.4c0,-27.83515 22.56485,-50.4 50.4,-50.4h50.4c27.83515,0 50.4,22.56485 50.4,50.4v50.4c0,27.83515 -22.56485,50.4 -50.4,50.4z" fill="none"/><path d="M54.18,252c-29.92279,0 -54.18,-24.25721 -54.18,-54.18v-143.64c0,-29.92279 24.25721,-54.18 54.18,-54.18h143.64c29.92279,0 54.18,24.25721 54.18,54.18v143.64c0,29.92279 -24.25721,54.18 -54.18,54.18z" fill="none"/><path d="M104.58,201.6c-29.92279,0 -54.18,-24.25721 -54.18,-54.18v-42.84c0,-29.92279 24.25721,-54.18 54.18,-54.18h42.84c29.92279,0 54.18,24.25721 54.18,54.18v42.84c0,29.92279 -24.25721,54.18 -54.18,54.18z" fill="none"/><path d="M55.44,252c-30.61867,0 -55.44,-24.82133 -55.44,-55.44v-141.12c0,-30.61867 24.82133,-55.44 55.44,-55.44h141.12c30.61867,0 55.44,24.82133 55.44,55.44v141.12c0,30.61867 -24.82133,55.44 -55.44,55.44z" fill="none"/><path d="M105.84,201.6c-30.61867,0 -55.44,-24.82133 -55.44,-55.44v-40.32c0,-30.61867 24.82133,-55.44 55.44,-55.44h40.32c30.61867,0 55.44,24.82133 55.44,55.44v40.32c0,30.61867 -24.82133,55.44 -55.44,55.44z" fill="none"/><path d="M56.7,252c-31.31455,0 -56.7,-25.38545 -56.7,-56.7v-138.6c0,-31.31455 25.38545,-56.7 56.7,-56.7h138.6c31.31455,0 56.7,25.38545 56.7,56.7v138.6c0,31.31455 -25.38545,56.7 -56.7,56.7z" fill="none"/><path d="M107.1,201.6c-31.31455,0 -56.7,-25.38545 -56.7,-56.7v-37.8c0,-31.31455 25.38545,-56.7 56.7,-56.7h37.8c31.31455,0 56.7,25.38545 56.7,56.7v37.8c0,31.31455 -25.38545,56.7 -56.7,56.7z" fill="none"/><path d="M57.96,252c-32.01042,0 -57.96,-25.94958 -57.96,-57.96v-136.08c0,-32.01042 25.94958,-57.96 57.96,-57.96h136.08c32.01042,0 57.96,25.94958 57.96,57.96v136.08c0,32.01042 -25.94958,57.96 -57.96,57.96z" fill="none"/><path d="M108.36,201.6c-32.01042,0 -57.96,-25.94958 -57.96,-57.96v-35.28c0,-32.01042 25.94958,-57.96 57.96,-57.96h35.28c32.01042,0 57.96,25.94958 57.96,57.96v35.28c0,32.01042 -25.94958,57.96 -57.96,57.96z" fill="none"/><path d="M59.22,252c-32.7063,0 -59.22,-26.5137 -59.22,-59.22v-133.56c0,-32.7063 26.5137,-59.22 59.22,-59.22h133.56c32.7063,0 59.22,26.5137 59.22,59.22v133.56c0,32.7063 -26.5137,59.22 -59.22,59.22z" fill="none"/><path d="M109.62,201.6c-32.7063,0 -59.22,-26.5137 -59.22,-59.22v-32.76c0,-32.7063 26.5137,-59.22 59.22,-59.22h32.76c32.7063,0 59.22,26.5137 59.22,59.22v32.76c0,32.7063 -26.5137,59.22 -59.22,59.22z" fill="none"/><path d="M60.48,252c-33.40218,0 -60.48,-27.07782 -60.48,-60.48v-131.04c0,-33.40218 27.07782,-60.48 60.48,-60.48h131.04c33.40218,0 60.48,27.07782 60.48,60.48v131.04c0,33.40218 -27.07782,60.48 -60.48,60.48z" fill="none"/><path d="M110.88,201.6c-33.40218,0 -60.48,-27.07782 -60.48,-60.48v-30.24c0,-33.40218 27.07782,-60.48 60.48,-60.48h30.24c33.40218,0 60.48,27.07782 60.48,60.48v30.24c0,33.40218 -27.07782,60.48 -60.48,60.48z" fill="none"/><path d="M61.74,252c-34.09806,0 -61.74,-27.64194 -61.74,-61.74v-128.52c0,-34.09806 27.64194,-61.74 61.74,-61.74h128.52c34.09806,0 61.74,27.64194 61.74,61.74v128.52c0,34.09806 -27.64194,61.74 -61.74,61.74z" fill="none"/><path d="M112.14,201.6c-34.09806,0 -61.74,-27.64194 -61.74,-61.74v-27.72c0,-34.09806 27.64194,-61.74 61.74,-61.74h27.72c34.09806,0 61.74,27.64194 61.74,61.74v27.72c0,34.09806 -27.64194,61.74 -61.74,61.74z" fill="none"/><path d="M64.26,252c-35.48982,0 -64.26,-28.77018 -64.26,-64.26v-123.48c0,-35.48982 28.77018,-64.26 64.26,-64.26h123.48c35.48982,0 64.26,28.77018 64.26,64.26v123.48c0,35.48982 -28.77018,64.26 -64.26,64.26z" fill="none"/><path d="M114.66,201.6c-35.48982,0 -64.26,-28.77018 -64.26,-64.26v-22.68c0,-35.48982 28.77018,-64.26 64.26,-64.26h22.68c35.48982,0 64.26,28.77018 64.26,64.26v22.68c0,35.48982 -28.77018,64.26 -64.26,64.26z" fill="none"/><path d="M66.78,252c-36.88158,0 -66.78,-29.89842 -66.78,-66.78v-118.44c0,-36.88158 29.89842,-66.78 66.78,-66.78h118.44c36.88158,0 66.78,29.89842 66.78,66.78v118.44c0,36.88158 -29.89842,66.78 -66.78,66.78z" fill="none"/><path d="M117.18,201.6c-36.88158,0 -66.78,-29.89842 -66.78,-66.78v-17.64c0,-36.88158 29.89842,-66.78 66.78,-66.78h17.64c36.88158,0 66.78,29.89842 66.78,66.78v17.64c0,36.88158 -29.89842,66.78 -66.78,66.78z" fill="none"/><path d="M68.04,252c-37.57745,0 -68.04,-30.46255 -68.04,-68.04v-115.92c0,-37.57745 30.46255,-68.04 68.04,-68.04h115.92c37.57745,0 68.04,30.46255 68.04,68.04v115.92c0,37.57745 -30.46255,68.04 -68.04,68.04z" fill="none"/><path d="M118.44,201.6c-37.57745,0 -68.04,-30.46255 -68.04,-68.04v-15.12c0,-37.57745 30.46255,-68.04 68.04,-68.04h15.12c37.57745,0 68.04,30.46255 68.04,68.04v15.12c0,37.57745 -30.46255,68.04 -68.04,68.04z" fill="none"/><path d="M69.3,252c-38.27333,0 -69.3,-31.02667 -69.3,-69.3v-113.4c0,-38.27333 31.02667,-69.3 69.3,-69.3h113.4c38.27333,0 69.3,31.02667 69.3,69.3v113.4c0,38.27333 -31.02667,69.3 -69.3,69.3z" fill="none"/><path d="M119.7,201.6c-38.27333,0 -69.3,-31.02667 -69.3,-69.3v-12.6c0,-38.27333 31.02667,-69.3 69.3,-69.3h12.6c38.27333,0 69.3,31.02667 69.3,69.3v12.6c0,38.27333 -31.02667,69.3 -69.3,69.3z" fill="none"/><path d="M71.82,252c-39.66509,0 -71.82,-32.15491 -71.82,-71.82v-108.36c0,-39.66509 32.15491,-71.82 71.82,-71.82h108.36c39.66509,0 71.82,32.15491 71.82,71.82v108.36c0,39.66509 -32.15491,71.82 -71.82,71.82z" fill="none"/><path d="M122.22,201.6c-39.66509,0 -71.82,-32.15491 -71.82,-71.82v-7.56c0,-39.66509 32.15491,-71.82 71.82,-71.82h7.56c39.66509,0 71.82,32.15491 71.82,71.82v7.56c0,39.66509 -32.15491,71.82 -71.82,71.82z" fill="none"/><path d="M73.08,252c-40.36097,0 -73.08,-32.71903 -73.08,-73.08v-105.84c0,-40.36097 32.71903,-73.08 73.08,-73.08h105.84c40.36097,0 73.08,32.71903 73.08,73.08v105.84c0,40.36097 -32.71903,73.08 -73.08,73.08z" fill="none"/><path d="M123.48,201.6c-40.36097,0 -73.08,-32.71903 -73.08,-73.08v-5.04c0,-40.36097 32.71903,-73.08 73.08,-73.08h5.04c40.36097,0 73.08,32.71903 73.08,73.08v5.04c0,40.36097 -32.71903,73.08 -73.08,73.08z" fill="none"/><path d="M74.34,252c-41.05685,0 -74.34,-33.28315 -74.34,-74.34v-103.32c0,-41.05685 33.28315,-74.34 74.34,-74.34h103.32c41.05685,0 74.34,33.28315 74.34,74.34v103.32c0,41.05685 -33.28315,74.34 -74.34,74.34z" fill="none"/><path d="M124.74,201.6c-41.05685,0 -74.34,-33.28315 -74.34,-74.34v-2.52c0,-41.05685 33.28315,-74.34 74.34,-74.34h2.52c41.05685,0 74.34,33.28315 74.34,74.34v2.52c0,41.05685 -33.28315,74.34 -74.34,74.34z" fill="none"/><path d="M75.6,252c-41.75273,0 -75.6,-33.84727 -75.6,-75.6v-100.8c0,-41.75273 33.84727,-75.6 75.6,-75.6h100.8c41.75273,0 75.6,33.84727 75.6,75.6v100.8c0,41.75273 -33.84727,75.6 -75.6,75.6z" fill="none"/><path d="M126,201.6c-41.75273,0 -75.6,-33.84727 -75.6,-75.6v0c0,-41.75273 33.84727,-75.6 75.6,-75.6h0c41.75273,0 75.6,33.84727 75.6,75.6v0c0,41.75273 -33.84727,75.6 -75.6,75.6z" fill="none"/><path d="M80.64,252c-44.53624,0 -80.64,-36.10376 -80.64,-80.64v-90.72c0,-44.53624 36.10376,-80.64 80.64,-80.64h90.72c44.53624,0 80.64,36.10376 80.64,80.64v90.72c0,44.53624 -36.10376,80.64 -80.64,80.64z" fill="none"/><path d="M126,201.6c-41.75273,0 -75.6,-33.84727 -75.6,-75.6v0c0,-41.75273 33.84727,-75.6 75.6,-75.6h0c41.75273,0 75.6,33.84727 75.6,75.6v0c0,41.75273 -33.84727,75.6 -75.6,75.6z" fill="none"/><path d="M84.42,252c-46.62388,0 -84.42,-37.79612 -84.42,-84.42v-83.16c0,-46.62388 37.79612,-84.42 84.42,-84.42h83.16c46.62388,0 84.42,37.79612 84.42,84.42v83.16c0,46.62388 -37.79612,84.42 -84.42,84.42z" fill="none"/><path d="M126,201.6c-41.75273,0 -75.6,-33.84727 -75.6,-75.6v0c0,-41.75273 33.84727,-75.6 75.6,-75.6h0c41.75273,0 75.6,33.84727 75.6,75.6v0c0,41.75273 -33.84727,75.6 -75.6,75.6z" fill="none"/><path d="M86.94,252c-48.01564,0 -86.94,-38.92436 -86.94,-86.94v-78.12c0,-48.01564 38.92436,-86.94 86.94,-86.94h78.12c48.01564,0 86.94,38.92436 86.94,86.94v78.12c0,48.01564 -38.92436,86.94 -86.94,86.94z" fill="none"/><path d="M126,201.6c-41.75273,0 -75.6,-33.84727 -75.6,-75.6v0c0,-41.75273 33.84727,-75.6 75.6,-75.6h0c41.75273,0 75.6,33.84727 75.6,75.6v0c0,41.75273 -33.84727,75.6 -75.6,75.6z" fill="none"/><path d="M89.46,252c-49.40739,0 -89.46,-40.05261 -89.46,-89.46v-73.08c0,-49.40739 40.05261,-89.46 89.46,-89.46h73.08c49.40739,0 89.46,40.05261 89.46,89.46v73.08c0,49.40739 -40.05261,89.46 -89.46,89.46z" fill="none"/><path d="M126,201.6c-41.75273,0 -75.6,-33.84727 -75.6,-75.6v0c0,-41.75273 33.84727,-75.6 75.6,-75.6h0c41.75273,0 75.6,33.84727 75.6,75.6v0c0,41.75273 -33.84727,75.6 -75.6,75.6z" fill="none"/><path d="M90.72,252c-50.10327,0 -90.72,-40.61673 -90.72,-90.72v-70.56c0,-50.10327 40.61673,-90.72 90.72,-90.72h70.56c50.10327,0 90.72,40.61673 90.72,90.72v70.56c0,50.10327 -40.61673,90.72 -90.72,90.72z" fill="none"/><path d="M126,201.6c-41.75273,0 -75.6,-33.84727 -75.6,-75.6v0c0,-41.75273 33.84727,-75.6 75.6,-75.6h0c41.75273,0 75.6,33.84727 75.6,75.6v0c0,41.75273 -33.84727,75.6 -75.6,75.6z" fill="none"/><path d="M91.98,252c-50.79915,0 -91.98,-41.18085 -91.98,-91.98v-68.04c0,-50.79915 41.18085,-91.98 91.98,-91.98h68.04c50.79915,0 91.98,41.18085 91.98,91.98v68.04c0,50.79915 -41.18085,91.98 -91.98,91.98z" fill="none"/><path d="M126,201.6c-41.75273,0 -75.6,-33.84727 -75.6,-75.6v0c0,-41.75273 33.84727,-75.6 75.6,-75.6h0c41.75273,0 75.6,33.84727 75.6,75.6v0c0,41.75273 -33.84727,75.6 -75.6,75.6z" fill="none"/><path d="M93.24,252c-51.49503,0 -93.24,-41.74497 -93.24,-93.24v-65.52c0,-51.49503 41.74497,-93.24 93.24,-93.24h65.52c51.49503,0 93.24,41.74497 93.24,93.24v65.52c0,51.49503 -41.74497,93.24 -93.24,93.24z" fill="none"/><path d="M126,201.6c-41.75273,0 -75.6,-33.84727 -75.6,-75.6v0c0,-41.75273 33.84727,-75.6 75.6,-75.6h0c41.75273,0 75.6,33.84727 75.6,75.6v0c0,41.75273 -33.84727,75.6 -75.6,75.6z" fill="none"/><path d="M95.76,252c-52.88679,0 -95.76,-42.87321 -95.76,-95.76v-60.48c0,-52.88679 42.87321,-95.76 95.76,-95.76h60.48c52.88679,0 95.76,42.87321 95.76,95.76v60.48c0,52.88679 -42.87321,95.76 -95.76,95.76z" fill="none"/><path d="M126,201.6c-41.75273,0 -75.6,-33.84727 -75.6,-75.6v0c0,-41.75273 33.84727,-75.6 75.6,-75.6h0c41.75273,0 75.6,33.84727 75.6,75.6v0c0,41.75273 -33.84727,75.6 -75.6,75.6z" fill="none"/><path d="M97.02,252c-53.58267,0 -97.02,-43.43733 -97.02,-97.02v-57.96c0,-53.58267 43.43733,-97.02 97.02,-97.02h57.96c53.58267,0 97.02,43.43733 97.02,97.02v57.96c0,53.58267 -43.43733,97.02 -97.02,97.02z" fill="none"/><path d="M126,201.6c-41.75273,0 -75.6,-33.84727 -75.6,-75.6v0c0,-41.75273 33.84727,-75.6 75.6,-75.6h0c41.75273,0 75.6,33.84727 75.6,75.6v0c0,41.75273 -33.84727,75.6 -75.6,75.6z" fill="none"/><path d="M98.28,252c-54.27855,0 -98.28,-44.00145 -98.28,-98.28v-55.44c0,-54.27855 44.00145,-98.28 98.28,-98.28h55.44c54.27855,0 98.28,44.00145 98.28,98.28v55.44c0,54.27855 -44.00145,98.28 -98.28,98.28z" fill="none"/><path d="M126,201.6c-41.75273,0 -75.6,-33.84727 -75.6,-75.6v0c0,-41.75273 33.84727,-75.6 75.6,-75.6h0c41.75273,0 75.6,33.84727 75.6,75.6v0c0,41.75273 -33.84727,75.6 -75.6,75.6z" fill="none"/><path d="M99.54,252c-54.97442,0 -99.54,-44.56558 -99.54,-99.54v-52.92c0,-54.97442 44.56558,-99.54 99.54,-99.54h52.92c54.97442,0 99.54,44.56558 99.54,99.54v52.92c0,54.97442 -44.56558,99.54 -99.54,99.54z" fill="none"/><path d="M126,201.6c-41.75273,0 -75.6,-33.84727 -75.6,-75.6v0c0,-41.75273 33.84727,-75.6 75.6,-75.6h0c41.75273,0 75.6,33.84727 75.6,75.6v0c0,41.75273 -33.84727,75.6 -75.6,75.6z" fill="none"/><path d="M102.06,252c-56.36618,0 -102.06,-45.69382 -102.06,-102.06v-47.88c0,-56.36618 45.69382,-102.06 102.06,-102.06h47.88c56.36618,0 102.06,45.69382 102.06,102.06v47.88c0,56.36618 -45.69382,102.06 -102.06,102.06z" fill="none"/><path d="M126,201.6c-41.75273,0 -75.6,-33.84727 -75.6,-75.6v0c0,-41.75273 33.84727,-75.6 75.6,-75.6h0c41.75273,0 75.6,33.84727 75.6,75.6v0c0,41.75273 -33.84727,75.6 -75.6,75.6z" fill="none"/><path d="M103.32,252c-57.06206,0 -103.32,-46.25794 -103.32,-103.32v-45.36c0,-57.06206 46.25794,-103.32 103.32,-103.32h45.36c57.06206,0 103.32,46.25794 103.32,103.32v45.36c0,57.06206 -46.25794,103.32 -103.32,103.32z" fill="none"/><path d="M126,201.6c-41.75273,0 -75.6,-33.84727 -75.6,-75.6v0c0,-41.75273 33.84727,-75.6 75.6,-75.6h0c41.75273,0 75.6,33.84727 75.6,75.6v0c0,41.75273 -33.84727,75.6 -75.6,75.6z" fill="none"/><path d="M104.58,252c-57.75794,0 -104.58,-46.82206 -104.58,-104.58v-42.84c0,-57.75794 46.82206,-104.58 104.58,-104.58h42.84c57.75794,0 104.58,46.82206 104.58,104.58v42.84c0,57.75794 -46.82206,104.58 -104.58,104.58z" fill="none"/><path d="M126,201.6c-41.75273,0 -75.6,-33.84727 -75.6,-75.6v0c0,-41.75273 33.84727,-75.6 75.6,-75.6h0c41.75273,0 75.6,33.84727 75.6,75.6v0c0,41.75273 -33.84727,75.6 -75.6,75.6z" fill="none"/><path d="M105.84,252c-58.45382,0 -105.84,-47.38618 -105.84,-105.84v-40.32c0,-58.45382 47.38618,-105.84 105.84,-105.84h40.32c58.45382,0 105.84,47.38618 105.84,105.84v40.32c0,58.45382 -47.38618,105.84 -105.84,105.84z" fill="none"/><path d="M126,201.6c-41.75273,0 -75.6,-33.84727 -75.6,-75.6v0c0,-41.75273 33.84727,-75.6 75.6,-75.6h0c41.75273,0 75.6,33.84727 75.6,75.6v0c0,41.75273 -33.84727,75.6 -75.6,75.6z" fill="none"/><path d="M107.1,252c-59.1497,0 -107.1,-47.9503 -107.1,-107.1v-37.8c0,-59.1497 47.9503,-107.1 107.1,-107.1h37.8c59.1497,0 107.1,47.9503 107.1,107.1v37.8c0,59.1497 -47.9503,107.1 -107.1,107.1z" fill="none"/><path d="M126,201.6c-41.75273,0 -75.6,-33.84727 -75.6,-75.6v0c0,-41.75273 33.84727,-75.6 75.6,-75.6h0c41.75273,0 75.6,33.84727 75.6,75.6v0c0,41.75273 -33.84727,75.6 -75.6,75.6z" fill="none"/><path d="M108.36,252c-59.84558,0 -108.36,-48.51442 -108.36,-108.36v-35.28c0,-59.84558 48.51442,-108.36 108.36,-108.36h35.28c59.84558,0 108.36,48.51442 108.36,108.36v35.28c0,59.84558 -48.51442,108.36 -108.36,108.36z" fill="none"/><path d="M126,201.6c-41.75273,0 -75.6,-33.84727 -75.6,-75.6v0c0,-41.75273 33.84727,-75.6 75.6,-75.6h0c41.75273,0 75.6,33.84727 75.6,75.6v0c0,41.75273 -33.84727,75.6 -75.6,75.6z" fill="none"/><path d="M109.62,252c-60.54145,0 -109.62,-49.07855 -109.62,-109.62v-32.76c0,-60.54145 49.07855,-109.62 109.62,-109.62h32.76c60.54145,0 109.62,49.07855 109.62,109.62v32.76c0,60.54145 -49.07855,109.62 -109.62,109.62z" fill="none"/><path d="M126,201.6c-41.75273,0 -75.6,-33.84727 -75.6,-75.6v0c0,-41.75273 33.84727,-75.6 75.6,-75.6h0c41.75273,0 75.6,33.84727 75.6,75.6v0c0,41.75273 -33.84727,75.6 -75.6,75.6z" fill="none"/><path d="M110.88,252c-61.23733,0 -110.88,-49.64267 -110.88,-110.88v-30.24c0,-61.23733 49.64267,-110.88 110.88,-110.88h30.24c61.23733,0 110.88,49.64267 110.88,110.88v30.24c0,61.23733 -49.64267,110.88 -110.88,110.88z" fill="none"/><path d="M126,201.6c-41.75273,0 -75.6,-33.84727 -75.6,-75.6v0c0,-41.75273 33.84727,-75.6 75.6,-75.6h0c41.75273,0 75.6,33.84727 75.6,75.6v0c0,41.75273 -33.84727,75.6 -75.6,75.6z" fill="none"/><path d="M112.14,252c-61.93321,0 -112.14,-50.20679 -112.14,-112.14v-27.72c0,-61.93321 50.20679,-112.14 112.14,-112.14h27.72c61.93321,0 112.14,50.20679 112.14,112.14v27.72c0,61.93321 -50.20679,112.14 -112.14,112.14z" fill="none"/><path d="M126,201.6c-41.75273,0 -75.6,-33.84727 -75.6,-75.6v0c0,-41.75273 33.84727,-75.6 75.6,-75.6h0c41.75273,0 75.6,33.84727 75.6,75.6v0c0,41.75273 -33.84727,75.6 -75.6,75.6z" fill="none"/><path d="M114.66,252c-63.32497,0 -114.66,-51.33503 -114.66,-114.66v-22.68c0,-63.32497 51.33503,-114.66 114.66,-114.66h22.68c63.32497,0 114.66,51.33503 114.66,114.66v22.68c0,63.32497 -51.33503,114.66 -114.66,114.66z" fill="none"/><path d="M126,201.6c-41.75273,0 -75.6,-33.84727 -75.6,-75.6v0c0,-41.75273 33.84727,-75.6 75.6,-75.6h0c41.75273,0 75.6,33.84727 75.6,75.6v0c0,41.75273 -33.84727,75.6 -75.6,75.6z" fill="none"/><path d="M115.92,252c-64.02085,0 -115.92,-51.89915 -115.92,-115.92v-20.16c0,-64.02085 51.89915,-115.92 115.92,-115.92h20.16c64.02085,0 115.92,51.89915 115.92,115.92v20.16c0,64.02085 -51.89915,115.92 -115.92,115.92z" fill="none"/><path d="M126,201.6c-41.75273,0 -75.6,-33.84727 -75.6,-75.6v0c0,-41.75273 33.84727,-75.6 75.6,-75.6h0c41.75273,0 75.6,33.84727 75.6,75.6v0c0,41.75273 -33.84727,75.6 -75.6,75.6z" fill="none"/><path d="M117.18,252c-64.71673,0 -117.18,-52.46327 -117.18,-117.18v-17.64c0,-64.71673 52.46327,-117.18 117.18,-117.18h17.64c64.71673,0 117.18,52.46327 117.18,117.18v17.64c0,64.71673 -52.46327,117.18 -117.18,117.18z" fill="none"/><path d="M126,201.6c-41.75273,0 -75.6,-33.84727 -75.6,-75.6v0c0,-41.75273 33.84727,-75.6 75.6,-75.6h0c41.75273,0 75.6,33.84727 75.6,75.6v0c0,41.75273 -33.84727,75.6 -75.6,75.6z" fill="none"/><path d="M119.7,252c-66.10848,0 -119.7,-53.59152 -119.7,-119.7v-12.6c0,-66.10848 53.59152,-119.7 119.7,-119.7h12.6c66.10848,0 119.7,53.59152 119.7,119.7v12.6c0,66.10848 -53.59152,119.7 -119.7,119.7z" fill="none"/><path d="M126,201.6c-41.75273,0 -75.6,-33.84727 -75.6,-75.6v0c0,-41.75273 33.84727,-75.6 75.6,-75.6h0c41.75273,0 75.6,33.84727 75.6,75.6v0c0,41.75273 -33.84727,75.6 -75.6,75.6z" fill="none"/><path d="M120.96,252c-66.80436,0 -120.96,-54.15564 -120.96,-120.96v-10.08c0,-66.80436 54.15564,-120.96 120.96,-120.96h10.08c66.80436,0 120.96,54.15564 120.96,120.96v10.08c0,66.80436 -54.15564,120.96 -120.96,120.96z" fill="none"/><path d="M126,201.6c-41.75273,0 -75.6,-33.84727 -75.6,-75.6v0c0,-41.75273 33.84727,-75.6 75.6,-75.6h0c41.75273,0 75.6,33.84727 75.6,75.6v0c0,41.75273 -33.84727,75.6 -75.6,75.6z" fill="none"/><path d="M122.22,252c-67.50024,0 -122.22,-54.71976 -122.22,-122.22v-7.56c0,-67.50024 54.71976,-122.22 122.22,-122.22h7.56c67.50024,0 122.22,54.71976 122.22,122.22v7.56c0,67.50024 -54.71976,122.22 -122.22,122.22z" fill="none"/><path d="M126,201.6c-41.75273,0 -75.6,-33.84727 -75.6,-75.6v0c0,-41.75273 33.84727,-75.6 75.6,-75.6h0c41.75273,0 75.6,33.84727 75.6,75.6v0c0,41.75273 -33.84727,75.6 -75.6,75.6z" fill="none"/><path d="M124.74,252c-68.892,0 -124.74,-55.848 -124.74,-124.74v-2.52c0,-68.892 55.848,-124.74 124.74,-124.74h2.52c68.892,0 124.74,55.848 124.74,124.74v2.52c0,68.892 -55.848,124.74 -124.74,124.74z" fill="none"/><path d="M126,201.6c-41.75273,0 -75.6,-33.84727 -75.6,-75.6v0c0,-41.75273 33.84727,-75.6 75.6,-75.6h0c41.75273,0 75.6,33.84727 75.6,75.6v0c0,41.75273 -33.84727,75.6 -75.6,75.6z" fill="none"/><path d="M126,252c-69.58788,0 -126,-56.41212 -126,-126v0c0,-69.58788 56.41212,-126 126,-126h0c69.58788,0 126,56.41212 126,126v0c0,69.58788 -56.41212,126 -126,126z" fill="none"/><path d="M126,201.6c-41.75273,0 -75.6,-33.84727 -75.6,-75.6v0c0,-41.75273 33.84727,-75.6 75.6,-75.6h0c41.75273,0 75.6,33.84727 75.6,75.6v0c0,41.75273 -33.84727,75.6 -75.6,75.6z" fill="none"/><path d="M120.96,252c-66.80436,0 -120.96,-54.15564 -120.96,-120.96v-10.08c0,-66.80436 54.15564,-120.96 120.96,-120.96h10.08c66.80436,0 120.96,54.15564 120.96,120.96v10.08c0,66.80436 -54.15564,120.96 -120.96,120.96z" fill="none"/><path d="M126,201.6c-41.75273,0 -75.6,-33.84727 -75.6,-75.6v0c0,-41.75273 33.84727,-75.6 75.6,-75.6h0c41.75273,0 75.6,33.84727 75.6,75.6v0c0,41.75273 -33.84727,75.6 -75.6,75.6z" fill="none"/><path d="M114.66,252c-63.32497,0 -114.66,-51.33503 -114.66,-114.66v-22.68c0,-63.32497 51.33503,-114.66 114.66,-114.66h22.68c63.32497,0 114.66,51.33503 114.66,114.66v22.68c0,63.32497 -51.33503,114.66 -114.66,114.66z" fill="none"/><path d="M126,201.6c-41.75273,0 -75.6,-33.84727 -75.6,-75.6v0c0,-41.75273 33.84727,-75.6 75.6,-75.6h0c41.75273,0 75.6,33.84727 75.6,75.6v0c0,41.75273 -33.84727,75.6 -75.6,75.6z" fill="none"/><path d="M105.84,252c-58.45382,0 -105.84,-47.38618 -105.84,-105.84v-40.32c0,-58.45382 47.38618,-105.84 105.84,-105.84h40.32c58.45382,0 105.84,47.38618 105.84,105.84v40.32c0,58.45382 -47.38618,105.84 -105.84,105.84z" fill="none"/><path d="M126,201.6c-41.75273,0 -75.6,-33.84727 -75.6,-75.6v0c0,-41.75273 33.84727,-75.6 75.6,-75.6h0c41.75273,0 75.6,33.84727 75.6,75.6v0c0,41.75273 -33.84727,75.6 -75.6,75.6z" fill="none"/><path d="M98.28,252c-54.27855,0 -98.28,-44.00145 -98.28,-98.28v-55.44c0,-54.27855 44.00145,-98.28 98.28,-98.28h55.44c54.27855,0 98.28,44.00145 98.28,98.28v55.44c0,54.27855 -44.00145,98.28 -98.28,98.28z" fill="none"/><path d="M126,201.6c-41.75273,0 -75.6,-33.84727 -75.6,-75.6v0c0,-41.75273 33.84727,-75.6 75.6,-75.6h0c41.75273,0 75.6,33.84727 75.6,75.6v0c0,41.75273 -33.84727,75.6 -75.6,75.6z" fill="none"/><path d="M93.24,252c-51.49503,0 -93.24,-41.74497 -93.24,-93.24v-65.52c0,-51.49503 41.74497,-93.24 93.24,-93.24h65.52c51.49503,0 93.24,41.74497 93.24,93.24v65.52c0,51.49503 -41.74497,93.24 -93.24,93.24z" fill="none"/><path d="M126,201.6c-41.75273,0 -75.6,-33.84727 -75.6,-75.6v0c0,-41.75273 33.84727,-75.6 75.6,-75.6h0c41.75273,0 75.6,33.84727 75.6,75.6v0c0,41.75273 -33.84727,75.6 -75.6,75.6z" fill="none"/><path d="M90.72,252c-50.10327,0 -90.72,-40.61673 -90.72,-90.72v-70.56c0,-50.10327 40.61673,-90.72 90.72,-90.72h70.56c50.10327,0 90.72,40.61673 90.72,90.72v70.56c0,50.10327 -40.61673,90.72 -90.72,90.72z" fill="none"/><path d="M126,201.6c-41.75273,0 -75.6,-33.84727 -75.6,-75.6v0c0,-41.75273 33.84727,-75.6 75.6,-75.6h0c41.75273,0 75.6,33.84727 75.6,75.6v0c0,41.75273 -33.84727,75.6 -75.6,75.6z" fill="none"/><path d="M84.42,252c-46.62388,0 -84.42,-37.79612 -84.42,-84.42v-83.16c0,-46.62388 37.79612,-84.42 84.42,-84.42h83.16c46.62388,0 84.42,37.79612 84.42,84.42v83.16c0,46.62388 -37.79612,84.42 -84.42,84.42z" fill="none"/><path d="M126,201.6c-41.75273,0 -75.6,-33.84727 -75.6,-75.6v0c0,-41.75273 33.84727,-75.6 75.6,-75.6h0c41.75273,0 75.6,33.84727 75.6,75.6v0c0,41.75273 -33.84727,75.6 -75.6,75.6z" fill="none"/><path d="M70.56,252c-38.96921,0 -70.56,-31.59079 -70.56,-70.56v-110.88c0,-38.96921 31.59079,-70.56 70.56,-70.56h110.88c38.96921,0 70.56,31.59079 70.56,70.56v110.88c0,38.96921 -31.59079,70.56 -70.56,70.56z" fill="none"/><path d="M120.96,201.6c-38.96921,0 -70.56,-31.59079 -70.56,-70.56v-10.08c0,-38.96921 31.59079,-70.56 70.56,-70.56h10.08c38.96921,0 70.56,31.59079 70.56,70.56v10.08c0,38.96921 -31.59079,70.56 -70.56,70.56z" fill="none"/><path d="M64.26,252c-35.48982,0 -64.26,-28.77018 -64.26,-64.26v-123.48c0,-35.48982 28.77018,-64.26 64.26,-64.26h123.48c35.48982,0 64.26,28.77018 64.26,64.26v123.48c0,35.48982 -28.77018,64.26 -64.26,64.26z" fill="none"/><path d="M114.66,201.6c-35.48982,0 -64.26,-28.77018 -64.26,-64.26v-22.68c0,-35.48982 28.77018,-64.26 64.26,-64.26h22.68c35.48982,0 64.26,28.77018 64.26,64.26v22.68c0,35.48982 -28.77018,64.26 -64.26,64.26z" fill="none"/><path d="M56.7,252c-31.31455,0 -56.7,-25.38545 -56.7,-56.7v-138.6c0,-31.31455 25.38545,-56.7 56.7,-56.7h138.6c31.31455,0 56.7,25.38545 56.7,56.7v138.6c0,31.31455 -25.38545,56.7 -56.7,56.7z" fill="none"/><path d="M107.1,201.6c-31.31455,0 -56.7,-25.38545 -56.7,-56.7v-37.8c0,-31.31455 25.38545,-56.7 56.7,-56.7h37.8c31.31455,0 56.7,25.38545 56.7,56.7v37.8c0,31.31455 -25.38545,56.7 -56.7,56.7z" fill="none"/><path d="M54.18,252c-29.92279,0 -54.18,-24.25721 -54.18,-54.18v-143.64c0,-29.92279 24.25721,-54.18 54.18,-54.18h143.64c29.92279,0 54.18,24.25721 54.18,54.18v143.64c0,29.92279 -24.25721,54.18 -54.18,54.18z" fill="none"/><path d="M104.58,201.6c-29.92279,0 -54.18,-24.25721 -54.18,-54.18v-42.84c0,-29.92279 24.25721,-54.18 54.18,-54.18h42.84c29.92279,0 54.18,24.25721 54.18,54.18v42.84c0,29.92279 -24.25721,54.18 -54.18,54.18z" fill="none"/><path d="M50.4,252c-27.83515,0 -50.4,-22.56485 -50.4,-50.4v-151.2c0,-27.83515 22.56485,-50.4 50.4,-50.4h151.2c27.83515,0 50.4,22.56485 50.4,50.4v151.2c0,27.83515 -22.56485,50.4 -50.4,50.4z" fill="none"/><path d="M100.8,201.6c-27.83515,0 -50.4,-22.56485 -50.4,-50.4v-50.4c0,-27.83515 22.56485,-50.4 50.4,-50.4h50.4c27.83515,0 50.4,22.56485 50.4,50.4v50.4c0,27.83515 -22.56485,50.4 -50.4,50.4z" fill="none"/><path d="M46.62,252c-25.74752,0 -46.62,-20.87248 -46.62,-46.62v-158.76c0,-25.74752 20.87248,-46.62 46.62,-46.62h158.76c25.74752,0 46.62,20.87248 46.62,46.62v158.76c0,25.74752 -20.87248,46.62 -46.62,46.62z" fill="none"/><path d="M97.02,201.6c-25.74752,0 -46.62,-20.87248 -46.62,-46.62v-57.96c0,-25.74752 20.87248,-46.62 46.62,-46.62h57.96c25.74752,0 46.62,20.87248 46.62,46.62v57.96c0,25.74752 -20.87248,46.62 -46.62,46.62z" fill="none"/><path d="M44.1,252c-24.35576,0 -44.1,-19.74424 -44.1,-44.1v-163.8c0,-24.35576 19.74424,-44.1 44.1,-44.1h163.8c24.35576,0 44.1,19.74424 44.1,44.1v163.8c0,24.35576 -19.74424,44.1 -44.1,44.1z" fill="none"/><path d="M94.5,201.6c-24.35576,0 -44.1,-19.74424 -44.1,-44.1v-63c0,-24.35576 19.74424,-44.1 44.1,-44.1h63c24.35576,0 44.1,19.74424 44.1,44.1v63c0,24.35576 -19.74424,44.1 -44.1,44.1z" fill="none"/><path d="M35.28,252c-19.48461,0 -35.28,-15.79539 -35.28,-35.28v-181.44c0,-19.48461 15.79539,-35.28 35.28,-35.28h181.44c19.48461,0 35.28,15.79539 35.28,35.28v181.44c0,19.48461 -15.79539,35.28 -35.28,35.28z" fill="none"/><path d="M85.68,201.6c-19.48461,0 -35.28,-15.79539 -35.28,-35.28v-80.64c0,-19.48461 15.79539,-35.28 35.28,-35.28h80.64c19.48461,0 35.28,15.79539 35.28,35.28v80.64c0,19.48461 -15.79539,35.28 -35.28,35.28z" fill="none"/><path d="M31.5,252c-17.39697,0 -31.5,-14.10303 -31.5,-31.5v-189c0,-17.39697 14.10303,-31.5 31.5,-31.5h189c17.39697,0 31.5,14.10303 31.5,31.5v189c0,17.39697 -14.10303,31.5 -31.5,31.5z" fill="none"/><path d="M81.9,201.6c-17.39697,0 -31.5,-14.10303 -31.5,-31.5v-88.2c0,-17.39697 14.10303,-31.5 31.5,-31.5h88.2c17.39697,0 31.5,14.10303 31.5,31.5v88.2c0,17.39697 -14.10303,31.5 -31.5,31.5z" fill="none"/><path d="M26.46,252c-14.61345,0 -26.46,-11.84655 -26.46,-26.46v-199.08c0,-14.61345 11.84655,-26.46 26.46,-26.46h199.08c14.61345,0 26.46,11.84655 26.46,26.46v199.08c0,14.61345 -11.84655,26.46 -26.46,26.46z" fill="none"/><path d="M76.86,201.6c-14.61345,0 -26.46,-11.84655 -26.46,-26.46v-98.28c0,-14.61345 11.84655,-26.46 26.46,-26.46h98.28c14.61345,0 26.46,11.84655 26.46,26.46v98.28c0,14.61345 -11.84655,26.46 -26.46,26.46z" fill="none"/><path d="M20.16,252c-11.13406,0 -20.16,-9.02594 -20.16,-20.16v-211.68c0,-11.13406 9.02594,-20.16 20.16,-20.16h211.68c11.13406,0 20.16,9.02594 20.16,20.16v211.68c0,11.13406 -9.02594,20.16 -20.16,20.16z" fill="none"/><path d="M70.56,201.6c-11.13406,0 -20.16,-9.02594 -20.16,-20.16v-110.88c0,-11.13406 9.02594,-20.16 20.16,-20.16h110.88c11.13406,0 20.16,9.02594 20.16,20.16v110.88c0,11.13406 -9.02594,20.16 -20.16,20.16z" fill="none"/><path d="M12.6,252c-6.95879,0 -12.6,-5.64121 -12.6,-12.6v-226.8c0,-6.95879 5.64121,-12.6 12.6,-12.6h226.8c6.95879,0 12.6,5.64121 12.6,12.6v226.8c0,6.95879 -5.64121,12.6 -12.6,12.6z" fill="none"/><path d="M63,201.6c-6.95879,0 -12.6,-5.64121 -12.6,-12.6v-126c0,-6.95879 5.64121,-12.6 12.6,-12.6h126c6.95879,0 12.6,5.64121 12.6,12.6v126c0,6.95879 -5.64121,12.6 -12.6,12.6z" fill="none"/><path d="M10.08,252c-5.56703,0 -10.08,-4.51297 -10.08,-10.08v-231.84c0,-5.56703 4.51297,-10.08 10.08,-10.08h231.84c5.56703,0 10.08,4.51297 10.08,10.08v231.84c0,5.56703 -4.51297,10.08 -10.08,10.08z" fill="none"/><path d="M60.48,201.6c-5.56703,0 -10.08,-4.51297 -10.08,-10.08v-131.04c0,-5.56703 4.51297,-10.08 10.08,-10.08h131.04c5.56703,0 10.08,4.51297 10.08,10.08v131.04c0,5.56703 -4.51297,10.08 -10.08,10.08z" fill="none"/><path d="M6.3,252c-3.47939,0 -6.3,-2.82061 -6.3,-6.3v-239.4c0,-3.47939 2.82061,-6.3 6.3,-6.3h239.4c3.47939,0 6.3,2.82061 6.3,6.3v239.4c0,3.47939 -2.82061,6.3 -6.3,6.3z" fill="none"/><path d="M56.7,201.6c-3.47939,0 -6.3,-2.82061 -6.3,-6.3v-138.6c0,-3.47939 2.82061,-6.3 6.3,-6.3h138.6c3.47939,0 6.3,2.82061 6.3,6.3v138.6c0,3.47939 -2.82061,6.3 -6.3,6.3z" fill="none"/><path d="M5.04,252c-2.78352,0 -5.04,-2.25648 -5.04,-5.04v-241.92c0,-2.78352 2.25648,-5.04 5.04,-5.04h241.92c2.78352,0 5.04,2.25648 5.04,5.04v241.92c0,2.78352 -2.25648,5.04 -5.04,5.04z" fill="none"/><path d="M55.44,201.6c-2.78352,0 -5.04,-2.25648 -5.04,-5.04v-141.12c0,-2.78352 2.25648,-5.04 5.04,-5.04h141.12c2.78352,0 5.04,2.25648 5.04,5.04v141.12c0,2.78352 -2.25648,5.04 -5.04,5.04z" fill="none"/><path d="M3.78,252c-2.08764,0 -3.78,-1.69236 -3.78,-3.78v-244.44c0,-2.08764 1.69236,-3.78 3.78,-3.78h244.44c2.08764,0 3.78,1.69236 3.78,3.78v244.44c0,2.08764 -1.69236,3.78 -3.78,3.78z" fill="none"/><path d="M54.18,201.6c-2.08764,0 -3.78,-1.69236 -3.78,-3.78v-143.64c0,-2.08764 1.69236,-3.78 3.78,-3.78h143.64c2.08764,0 3.78,1.69236 3.78,3.78v143.64c0,2.08764 -1.69236,3.78 -3.78,3.78z" fill="none"/><path d="M2.52,252c-1.39176,0 -2.52,-1.12824 -2.52,-2.52v-246.96c0,-1.39176 1.12824,-2.52 2.52,-2.52h246.96c1.39176,0 2.52,1.12824 2.52,2.52v246.96c0,1.39176 -1.12824,2.52 -2.52,2.52z" fill="none"/><path d="M52.92,201.6c-1.39176,0 -2.52,-1.12824 -2.52,-2.52v-146.16c0,-1.39176 1.12824,-2.52 2.52,-2.52h146.16c1.39176,0 2.52,1.12824 2.52,2.52v146.16c0,1.39176 -1.12824,2.52 -2.52,2.52z" fill="none"/><path d="M1.26,252c-0.69588,0 -1.26,-0.56412 -1.26,-1.26v-249.48c0,-0.69588 0.56412,-1.26 1.26,-1.26h249.48c0.69588,0 1.26,0.56412 1.26,1.26v249.48c0,0.69588 -0.56412,1.26 -1.26,1.26z" fill="none"/><path d="M51.66,201.6c-0.69588,0 -1.26,-0.56412 -1.26,-1.26v-148.68c0,-0.69588 0.56412,-1.26 1.26,-1.26h148.68c0.69588,0 1.26,0.56412 1.26,1.26v148.68c0,0.69588 -0.56412,1.26 -1.26,1.26z" fill="none"/><path d="M0,252v-252h252v252z" fill="none"/><path d="M50.4,201.6v-151.2h151.2v151.2z" fill="none"/><path d="M1.26,250.74v-249.48h249.48v249.48z" fill="none"/><path d="M51.66,200.34v-148.68h148.68v148.68z" fill="none"/><path d="M6.3,245.7v-239.4h239.4v239.4z" fill="none"/><path d="M56.7,195.3v-138.6h138.6v138.6z" fill="none"/><path d="M10.08,241.92v-231.84h231.84v231.84z" fill="none"/><path d="M60.48,191.52v-131.04h131.04v131.04z" fill="none"/><path d="M12.6,239.4v-226.8h226.8v226.8z" fill="none"/><path d="M63,189v-126h126v126z" fill="none"/><path d="M18.9,233.1v-214.2h214.2v214.2z" fill="none"/><path d="M69.3,182.7v-113.4h113.4v113.4z" fill="none"/><path d="M21.42,230.58v-209.16h209.16v209.16z" fill="none"/><path d="M71.82,180.18v-108.36h108.36v108.36z" fill="none"/><path d="M23.94,228.06v-204.12h204.12v204.12z" fill="none"/><path d="M74.34,177.66v-103.32h103.32v103.32z" fill="none"/><path d="M25.2,226.8v-201.6h201.6v201.6z" fill="none"/><path d="M75.6,176.4v-100.8h100.8v100.8z" fill="none"/><path d="M27.72,224.28v-196.56h196.56v196.56z" fill="none"/><path d="M78.12,173.88v-95.76h95.76v95.76z" fill="none"/><path d="M30.24,221.76v-191.52h191.52v191.52z" fill="none"/><path d="M80.64,171.36v-90.72h90.72v90.72z" fill="none"/><path d="M31.5,220.5v-189h189v189z" fill="none"/><path d="M81.9,170.1v-88.2h88.2v88.2z" fill="none"/><path d="M32.76,219.24v-186.48h186.48v186.48z" fill="none"/><path d="M83.16,168.84v-85.68h85.68v85.68z" fill="none"/><path d="M34.02,217.98v-183.96h183.96v183.96z" fill="none"/><path d="M84.42,167.58v-83.16h83.16v83.16z" fill="none"/><path d="M35.28,216.72v-181.44h181.44v181.44z" fill="none"/><path d="M85.68,166.32v-80.64h80.64v80.64z" fill="none"/><path d="M36.54,215.46v-178.92h178.92v178.92z" fill="none"/><path d="M86.94,165.06v-78.12h78.12v78.12z" fill="none"/><path d="M37.8,214.2v-176.4h176.4v176.4z" fill="none"/><path d="M88.2,163.8v-75.6h75.6v75.6z" fill="none"/><path d="M39.06,212.94v-173.88h173.88v173.88z" fill="none"/><path d="M89.46,162.54v-73.08h73.08v73.08z" fill="none"/><path d="M40.32,211.68v-171.36h171.36v171.36z" fill="none"/><path d="M90.72,161.28v-70.56h70.56v70.56z" fill="none"/><path d="M41.58,210.42v-168.84h168.84v168.84z" fill="none"/><path d="M91.98,160.02v-68.04h68.04v68.04z" fill="none"/><path d="M42.84,209.16v-166.32h166.32v166.32z" fill="none"/><path d="M93.24,158.76v-65.52h65.52v65.52z" fill="none"/><path d="M45.36,206.64v-161.28h161.28v161.28z" fill="none"/><path d="M95.76,156.24v-60.48h60.48v60.48z" fill="none"/><path d="M47.88,204.12v-156.24h156.24v156.24z" fill="none"/><path d="M98.28,153.72v-55.44h55.44v55.44z" fill="none"/><path d="M51.66,200.34v-148.68h148.68v148.68z" fill="none"/><path d="M102.06,149.94v-47.88h47.88v47.88z" fill="none"/><path d="M56.7,195.3v-138.6h138.6v138.6z" fill="none"/><path d="M107.1,144.9v-37.8h37.8v37.8z" fill="none"/><path d="M57.96,194.04v-136.08h136.08v136.08z" fill="none"/><path d="M108.36,143.64v-35.28h35.28v35.28z" fill="none"/><path d="M65.52,186.48v-120.96h120.96v120.96z" fill="none"/><path d="M115.92,136.08v-20.16h20.16v20.16z" fill="none"/><path d="M68.04,183.96v-115.92h115.92v115.92z" fill="none"/><path d="M118.44,133.56v-15.12h15.12v15.12z" fill="none"/><path d="M71.82,180.18v-108.36h108.36v108.36z" fill="none"/><path d="M122.22,129.78v-7.56h7.56v7.56z" fill="none"/><path d="M74.34,177.66v-103.32h103.32v103.32z" fill="none"/><path d="M124.74,127.26v-2.52h2.52v2.52z" fill="none"/><path d="M126,252c-69.58788,0 -126,-56.41212 -126,-126v0c0,-69.58788 56.41212,-126 126,-126h0c69.58788,0 126,56.41212 126,126v0c0,69.58788 -56.41212,126 -126,126z" fill="none"/><path d="M126,246.96c-66.80436,0 -120.96,-54.15564 -120.96,-120.96v0c0,-66.80436 54.15564,-120.96 120.96,-120.96v0c66.80436,0 120.96,54.15564 120.96,120.96v0c0,66.80436 -54.15564,120.96 -120.96,120.96z" fill="none"/><path d="" fill="none"/><path d="" fill="none"/></g></g></svg>
